<?xml version="1.0" encoding="utf-8"?>
<!-- Generator: Adobe Illustrator 16.0.0, SVG Export Plug-In . SVG Version: 6.00 Build 0)  -->
<!DOCTYPE svg PUBLIC "-//W3C//DTD SVG 1.1//EN" "http://www.w3.org/Graphics/SVG/1.1/DTD/svg11.dtd">
<svg version="1.1" id="Layer_1" xmlns="http://www.w3.org/2000/svg" xmlns:xlink="http://www.w3.org/1999/xlink" x="0px" y="0px"
	 width="180px" height="180px" viewBox="0 0 180 180" enable-background="new 0 0 180 180" xml:space="preserve">
<g>
	<g>
		<path fill-rule="evenodd" clip-rule="evenodd" d="M71.06,108.679c13.501,0,26.866,0,40.318,0
			c-0.059,0.826-0.146,1.592-0.168,2.364c-0.101,3.714-0.18,7.431-0.274,11.143c-0.026,1.062-0.095,2.124-0.12,3.184
			c-0.141,6.558-0.273,13.114-0.405,19.675c-0.058,2.873-0.107,5.744-0.158,8.617c-0.065,3.779-0.105,7.563-0.204,11.338
			c-0.033,1.239-0.257,2.475-0.325,3.714c-0.07,1.253-0.969,1.944-1.826,2.522c-2.646,1.771-5.595,2.762-8.806,2.744
			c-5.777-0.028-11.562,0.028-17.33-0.272c-2.212-0.116-4.535-0.811-6.517-1.817c-1.417-0.717-2.889-1.924-2.903-4.068
			c-0.046-6.492-0.231-12.986-0.358-19.481c-0.145-7.495-0.283-14.99-0.428-22.483c-0.043-2.221-0.078-4.438-0.148-6.656
			c-0.101-3.182-0.231-6.363-0.346-9.546C71.05,109.351,71.06,109.04,71.06,108.679z"/>
		<path fill-rule="evenodd" clip-rule="evenodd" d="M112.096,75.212c-14.008,0-27.743,0-41.688,0
			c0.099-1.563,0.068-3.117,0.33-4.623c0.268-1.535,0.63-3.116,1.303-4.505c0.795-1.643,1.819-3.232,3.018-4.605
			c1.311-1.503,3.006-2.663,4.398-4.104c1.039-1.076,2.04-2.268,2.726-3.582c0.551-1.056,0.79-2.363,0.844-3.574
			c0.161-3.582,0.133-7.172,0.229-10.758c0.166-6.242,0.369-12.483,0.557-18.724c0.026-0.875,0.062-1.736-0.577-2.479
			c-0.169-0.199-0.164-0.585-0.167-0.887c-0.012-1.905-0.007-3.811-0.007-5.717c0-1.451,0.278-1.82,1.75-1.839
			c3.581-0.048,7.162-0.033,10.743-0.013c0.804,0.004,1.61,0.105,2.41,0.208c0.601,0.078,0.879,0.412,0.864,1.084
			c-0.04,2.092-0.001,4.187-0.029,6.279c-0.006,0.301-0.229,0.595-0.306,0.903c-0.141,0.557-0.36,1.125-0.347,1.683
			c0.136,5.366,0.342,10.731,0.471,16.099c0.104,4.307,0.083,8.616,0.219,12.923c0.068,2.139,0.444,4.304,1.851,5.997
			c1.195,1.441,2.196,3.123,4.073,3.933c0.589,0.254,0.98,0.983,1.434,1.518c0.834,0.98,1.634,1.988,2.474,2.964
			c1.382,1.609,2.021,3.623,2.602,5.554C111.853,70.901,111.834,73.037,112.096,75.212z"/>
		<path fill-rule="evenodd" clip-rule="evenodd" d="M111.711,84.841c-1.285-2.206-3.194-2.793-5.353-2.833
			c-1.865-0.033-3.73-0.006-5.643-0.006c0,6.579,0,13.064,0,19.687c0.677,0,1.352,0.002,2.026,0
			c1.688-0.005,3.386,0.114,5.058-0.054c1.234-0.123,2.43-0.623,3.625-0.948c0,1.459,0,3.122,0,4.864c-13.462,0-26.848,0-40.361,0
			c-0.076-1.222-0.153-2.479-0.238-3.862c1.373,0,2.643,0.026,3.912-0.007c1.245-0.029,2.51,0,3.731-0.211
			c1.895-0.327,3.274-1.443,3.779-3.346c0.555-2.084,0.448-4.127-1.181-5.767c-0.485-0.488-1.196-0.755-1.817-1.131
			c1.895-1.047,2.554-2.781,2.252-4.918c-0.376-2.671-2.305-4.211-5.39-4.293c-1.81-0.048-3.621-0.009-5.524-0.009
			c0-1.255,0-2.452,0-3.706c13.68,0,27.377,0,41.123,0C111.711,80.419,111.711,82.501,111.711,84.841z M85.455,82.15
			c0,6.486,0,12.986,0,19.513c2.479,0,4.885,0.097,7.281-0.024c3.039-0.153,4.82-1.969,5.019-4.991
			c0.165-2.52-0.679-4.501-3.315-5.364c2.085-1.411,2.76-3.066,2.261-5.427c-0.431-2.038-1.837-3.454-4.192-3.664
			C90.192,81.988,87.843,82.15,85.455,82.15z"/>
		<path fill-rule="evenodd" clip-rule="evenodd" d="M103.458,99.578c0-2.369,0-4.693,0-7.063c1.397,0,2.74-0.055,4.076,0.018
			c1.239,0.066,2.187,0.757,2.47,1.952c0.226,0.939,0.248,1.983,0.105,2.941c-0.19,1.277-1.116,2.039-2.394,2.129
			C106.323,99.653,104.921,99.578,103.458,99.578z"/>
		<path fill-rule="evenodd" clip-rule="evenodd" d="M72.913,99.563c0-2.382,0-4.655,0-6.959c1.53,0,3.053-0.114,4.544,0.054
			c0.607,0.069,1.327,0.633,1.68,1.178c0.891,1.377,0.839,2.9,0.153,4.372c-0.386,0.825-1.137,1.288-2.015,1.336
			C75.854,99.617,74.426,99.563,72.913,99.563z"/>
		<path fill-rule="evenodd" clip-rule="evenodd" d="M103.458,90.485c0-2.149,0-4.22,0-6.447c1.297,0.069,2.545,0.028,3.753,0.226
			c1.552,0.256,2.241,1.532,2.107,3.538c-0.103,1.543-0.999,2.567-2.472,2.668C105.739,90.546,104.622,90.485,103.458,90.485z"/>
		<path fill-rule="evenodd" clip-rule="evenodd" d="M72.926,90.476c0-2.153,0-4.203,0-6.439c1.312,0.075,2.595,0.03,3.832,0.248
			c1.499,0.264,2.149,1.542,2.014,3.523c-0.103,1.526-0.961,2.543-2.387,2.651C75.271,90.544,74.146,90.476,72.926,90.476z"/>
		<path fill-rule="evenodd" clip-rule="evenodd" fill="#FFFFFF" d="M85.455,82.15c2.389,0,4.737-0.162,7.052,0.042
			c2.355,0.209,3.762,1.625,4.192,3.664c0.499,2.361-0.176,4.017-2.261,5.427c2.637,0.863,3.48,2.845,3.315,5.364
			c-0.198,3.022-1.979,4.838-5.019,4.991c-2.396,0.121-4.802,0.024-7.281,0.024C85.455,95.136,85.455,88.636,85.455,82.15z
			 M88.129,92.514c0,1.264,0,2.411,0,3.56c0,1.169,0,2.336,0,3.531c1.436,0,2.712,0.035,3.987-0.009
			c1.54-0.051,2.542-0.862,2.773-2.382c0.129-0.836,0.105-1.75-0.091-2.573c-0.302-1.266-1.224-2.037-2.546-2.109
			C90.923,92.458,89.587,92.514,88.129,92.514z M88.18,90.488c1.16,0,2.278,0.058,3.387-0.016c1.446-0.094,2.268-0.998,2.487-2.572
			c0.232-1.657-0.373-3.171-1.674-3.479c-1.354-0.323-2.79-0.3-4.2-0.43C88.18,86.309,88.18,88.358,88.18,90.488z"/>
		<path fill-rule="evenodd" clip-rule="evenodd" d="M88.129,92.514c1.458,0,2.793-0.056,4.124,0.018
			c1.322,0.072,2.244,0.844,2.546,2.109c0.196,0.823,0.22,1.737,0.091,2.573c-0.231,1.52-1.233,2.331-2.773,2.382
			c-1.274,0.044-2.551,0.009-3.987,0.009c0-1.195,0-2.362,0-3.531C88.129,94.925,88.129,93.777,88.129,92.514z"/>
		<path fill-rule="evenodd" clip-rule="evenodd" d="M88.18,90.488c0-2.13,0-4.179,0-6.498c1.411,0.13,2.847,0.107,4.2,0.43
			c1.301,0.308,1.906,1.823,1.674,3.479c-0.22,1.574-1.041,2.479-2.487,2.572C90.458,90.546,89.34,90.488,88.18,90.488z"/>
	</g>
</g>
</svg>
